# xmcd
#
# Track frame offsets: 
#        150
#        13977
#        33704
#        67475
#        100867
#        137914
#        153653
#        173411
#        198352
#        215025
#        230311
#        252744
#
# Disc length: 3728 seconds
#
# Revision: 0
# Processed by: cddbd v1.5.2PL0 Copyright (c) Steve Scherf et al.
# Submitted via: ExactAudioCopy v0.99pb5
#
DISCID=b80e8e0c
DTITLE=Curtis and the kicks - live at the Metaphor
DYEAR=1900
DGENRE=Blues
TTITLE0=Trouble In Mind
TTITLE1=Hard Way To Go
TTITLE2=Who's Been Talking
TTITLE3=Driftin' Blues
TTITLE4=Smokestack Lighting
TTITLE5=That's All Right
TTITLE6=Dust My Crossroads
TTITLE7=Walkin' Blues
TTITLE8=Staurday Nite
TTITLE9=Something You Got
TTITLE10=It's You That's Got to Go
TTITLE11=All Along the Watchtower
EXTD=
EXTT0=
EXTT1=
EXTT2=
EXTT3=
EXTT4=
EXTT5=
EXTT6=
EXTT7=
EXTT8=
EXTT9=
EXTT10=
EXTT11=
PLAYORDER=
